<?xml version="1.0" encoding="UTF-8"?>
<!DOCTYPE svg PUBLIC "-//W3C//DTD SVG 1.1//EN" "http://www.w3.org/Graphics/SVG/1.1/DTD/svg11.dtd">
<!-- Creator: CorelDRAW 2018 (64-Bit) -->
<svg xmlns="http://www.w3.org/2000/svg" xml:space="preserve" width="16.9332mm" height="16.9332mm" version="1.1" style="shape-rendering:geometricPrecision; text-rendering:geometricPrecision; image-rendering:optimizeQuality; fill-rule:evenodd; clip-rule:evenodd"
viewBox="0 0 1693.32 1693.32"
 xmlns:xlink="http://www.w3.org/1999/xlink">
 <defs>
  <style type="text/css">
   <![CDATA[
    .fil1 {fill:#BAF6FF}
    .fil2 {fill:#BAF7FF}
    .fil8 {fill:#BCF7FF}
    .fil5 {fill:url(#id0)}
    .fil4 {fill:url(#id1)}
    .fil7 {fill:url(#id2)}
    .fil6 {fill:url(#id3)}
    .fil3 {fill:url(#id4)}
    .fil9 {fill:url(#id5)}
    .fil10 {fill:url(#id6)}
    .fil11 {fill:url(#id7)}
    .fil0 {fill:url(#id8)}
   ]]>
  </style>
  <linearGradient id="id0" gradientUnits="userSpaceOnUse" x1="255.83" y1="1314.95" x2="1067.73" y2="1314.95">
   <stop offset="0" style="stop-opacity:1; stop-color:#7DCBFF"/>
   <stop offset="1" style="stop-opacity:1; stop-color:#536EEE"/>
  </linearGradient>
  <linearGradient id="id1" gradientUnits="userSpaceOnUse" x1="60.32" y1="1277.17" x2="942.55" y2="1277.17">
   <stop offset="0" style="stop-opacity:1; stop-color:#ABEEFF"/>
   <stop offset="1" style="stop-opacity:1; stop-color:#7697FE"/>
  </linearGradient>
  <linearGradient id="id2" gradientUnits="userSpaceOnUse" x1="942.55" y1="1181.98" x2="1639.39" y2="1181.98">
   <stop offset="0" style="stop-opacity:1; stop-color:#A8E8FF"/>
   <stop offset="0.509804" style="stop-opacity:1; stop-color:#90C0FF"/>
   <stop offset="1" style="stop-opacity:1; stop-color:#7798FE"/>
  </linearGradient>
  <linearGradient id="id3" gradientUnits="userSpaceOnUse" xlink:href="#id0" x1="1067.73" y1="1022.72" x2="1589.72" y2="1022.72">
  </linearGradient>
  <linearGradient id="id4" gradientUnits="userSpaceOnUse" xlink:href="#id2" x1="753.38" y1="494.67" x2="57.17" y2="494.67">
  </linearGradient>
  <linearGradient id="id5" gradientUnits="userSpaceOnUse" xlink:href="#id2" x1="1635.71" y1="399.46" x2="753.39" y2="399.46">
  </linearGradient>
  <linearGradient id="id6" gradientUnits="userSpaceOnUse" xlink:href="#id0" x1="1439.89" y1="361.61" x2="627.85" y2="361.61">
  </linearGradient>
  <linearGradient id="id7" gradientUnits="userSpaceOnUse" xlink:href="#id0" x1="627.85" y1="653.95" x2="106.25" y2="653.95">
  </linearGradient>
  <linearGradient id="id8" gradientUnits="userSpaceOnUse" x1="718.88" y1="1624.84" x2="119.73" y2="1474.7">
   <stop offset="0" style="stop-opacity:1; stop-color:#96D0FF"/>
   <stop offset="1" style="stop-opacity:1; stop-color:#7BA0FF"/>
  </linearGradient>
 </defs>
 <g id="Слой_x0020_1">
  <metadata id="CorelCorpID_0Corel-Layer"/>
  <g id="_2945576043664">
   <polygon class="fil0" points="64.95,1693.34 733.64,1565.92 334.96,1298.14 "/>
   <path class="fil1" d="M753.39 102.92l-86.35 -45.67c54.12,-38.15 117.7,-57.24 181.28,-57.24 79.88,0 159.89,30.2 220.85,90.73l0 0c-46.9,-24.83 -97.3,-36.61 -147.07,-36.61 -59.72,0 -118.45,17 -168.71,48.79l0 0z"/>
   <path class="fil2" d="M60.04 1017.46c-104.96,-146.43 -58.04,-336.14 33.75,-398.63 -54.44,102.42 -46.05,221.82 12.44,313.2l-46.19 85.43 0 0z"/>
   <path class="fil1" d="M847.64 1676.54c-80.04,0 -159.95,-30.21 -220.97,-90.74 47.02,24.83 97.41,36.61 147.06,36.61 59.78,0 118.43,-17 168.82,-48.79l86.29 45.71c-54.15,38.11 -117.67,57.21 -181.2,57.21l0 0z"/>
   <path class="fil3" d="M238.62 475.51l237.43 -235.48 150.28 -149.06c13.07,-13 26.05,-23.43 40.69,-33.64l86.36 45.58c-44.02,27.9 -81.51,66.83 -107.92,115.78l-17.61 32.83 -11.54 1.36c-95.33,13.96 -183.07,70.57 -231.65,161.37l-49.5 92.17 -134.19 249.16 -94.73 176.41c-38.25,-59.62 -55.26,-131.28 -47.06,-202.39 4.57,-37.75 15.48,-75.21 34.61,-110.77l144.83 -143.32z"/>
   <path class="fil4" d="M106.24 931.99c27.97,43.33 67.35,80.77 116.71,106.71l32.89 17.59 2.77 19.26c15.98,91.37 72.47,174.8 161.48,221.67l93.31 49.23 214.83 113.77 214.32 113.4c-50.5,31.83 -109.03,48.73 -168.94,48.73 -31.67,0 -63.63,-4.73 -94.73,-14.74 -17.69,-5.58 -35.38,-12.87 -52.21,-21.81l-131.81 -130.88 -262.5 -260 -138.38 -137.35c-12.5,-12.38 -23.73,-26.28 -33.67,-40.09l45.93 -85.49z"/>
   <path class="fil5" d="M887.1 1390.17c47,24.92 97.42,36.76 147.23,36.76 11.13,0 22.26,-0.75 33.39,-1.73l-17.94 32.8c-25.98,48.81 -63.31,87.76 -107.23,115.62l-201.74 -106.5 -173.22 -91.49 -147.83 -78.17 -15.78 -8.88c-85.67,-51.8 -137.94,-139.09 -148.15,-232.3l147.83 78.18 163.32 86.31 173.52 91.98 146.6 77.42z"/>
   <path class="fil6" d="M1530.41 854.26l-146.04 271.37 -73.56 136.92c-9.09,17.05 -19.73,32.85 -31.47,47.39 -52.96,65.99 -130.07,106.28 -211.62,115.26l61.83 -114.93 99.05 -184.03 144.91 -269.5 31.04 -57.62c30.56,-57 41.76,-119.4 35.33,-178.88l32.91 17.48c49.18,26.02 89.01,63.55 116.93,106.91l-59.31 109.63z"/>
   <path class="fil7" d="M1589.71 744.63c52.28,80.93 65.71,183.63 28.69,276.9 -4.49,12.41 -9.96,24.45 -16.4,36.19l-186.11 184.49 -258.69 256.58 -87.74 86.9c-12.56,12.41 -26.64,23.76 -40.62,33.63l-86.29 -45.7c41.29,-26.32 76.82,-62.5 102.62,-107.17l4.86 -8.52 17.69 -32.73c99.6,-10.7 192.41,-68.42 243.12,-162.71l24.89 -46.33 137.54 -255.76 116.44 -215.77z"/>
   <path class="fil8" d="M1602 1057.71c55.15,-102.41 46.47,-221.69 -12.28,-313.07l46 -85.8c83.73,116.92 76.53,278.36 -22.45,387.22 -0.04,0 -0.09,0 -0.09,0 -0.18,0.25 -0.32,0.37 -0.51,0.62 -0.04,0 -0.09,0 -0.14,0.12 -0.13,0.13 -0.27,0.37 -0.46,0.5 -0.04,0.12 -0.14,0.12 -0.18,0.25 -0.14,0.12 -0.28,0.24 -0.42,0.37 -0.09,0.12 -0.14,0.12 -0.18,0.25 -0.14,0.12 -0.23,0.24 -0.37,0.37 -0.09,0.12 -0.14,0.12 -0.23,0.25 -0.14,0.12 -0.28,0.24 -0.37,0.49 -0.09,0 -0.14,0.13 -0.23,0.13 -0.14,0.12 -0.28,0.37 -0.42,0.49 -0.04,0 -0.14,0.13 -0.23,0.25 -0.14,0.12 -0.28,0.25 -0.42,0.37 -0.09,0.13 -0.13,0.25 -0.23,0.25 -0.09,0.12 -0.18,0.25 -0.32,0.37 -0.09,0.13 -0.18,0.25 -0.32,0.37 -0.1,0 -0.19,0.13 -0.28,0.25 -0.09,0.13 -0.18,0.25 -0.28,0.25 -0.14,0.25 -0.23,0.37 -0.37,0.5 -0.09,0 -0.13,0.12 -0.23,0.24 -0.14,0.13 -0.27,0.25 -0.41,0.38 -0.1,0.12 -0.19,0.12 -0.23,0.24 -0.14,0.13 -0.28,0.25 -0.47,0.5 -0.04,0 -0.13,0.12 -0.18,0.12 -0.09,0.13 -0.23,0.25 -0.37,0.38 -0.09,0.12 -0.18,0.24 -0.23,0.24 -0.14,0.13 -0.28,0.25 -0.42,0.5 -0.04,0 -0.14,0.12 -0.18,0.12 -0.14,0.13 -0.32,0.38 -0.46,0.5 -0.05,0 -0.14,0.12 -0.19,0.12 -0.14,0.25 -0.32,0.38 -0.51,0.5 -0.04,0.12 -0.09,0.12 -0.13,0.25 -0.19,0.12 -0.33,0.25 -0.51,0.49 -0.05,0 -0.09,0 -0.09,0.13 -0.19,0.12 -0.37,0.37 -0.61,0.49l0 0z"/>
   <path class="fil9" d="M1451.17 469.47l150.68 149.3c12.72,12.61 23.79,26.03 33.85,40.09l-45.98 85.78c-28.22,-43.63 -67.44,-80.77 -116.82,-106.71l-33.01 -17.69c-2.54,-23.29 -7.62,-46.28 -15.52,-68.39 -21.44,-61.89 -62.64,-117.02 -120.2,-155.63l-28.22 -16.81 -253.38 -134.11 -269.18 -142.38c50.5,-31.83 109.19,-48.64 168.73,-48.64 49.95,0 100.17,11.79 147.29,36.55l20.32 20.34 229.39 227.27 132.05 131.03z"/>
   <path class="fil10" d="M753.38 102.91l121.17 64.27 224.48 118.62 162.66 86.05 13.79 7.34c95.3,50.29 153.78,142.29 164.42,241.11l-179 -94.55 -162.64 -86.05 -224.1 -118.62 -65.78 -34.8c-46.86,-24.75 -97.27,-36.56 -146.9,-36.56 -11.42,0 -22.6,0.68 -33.63,1.8l17.88 -33.09c25.99,-48.7 63.93,-87.9 107.65,-115.52z"/>
   <path class="fil11" d="M627.85 251.52l-101.43 188.37 -75.93 141.28 -97 180.29 -62.44 116.07c-30.59,57.08 -41.52,119.16 -35.02,178.85l-33.29 -17.59c-49.29,-25.93 -88.6,-63.27 -116.5,-106.8l92.09 -171 97.16 -180.77 75.59 -140.82 13.63 -25.22c50.2,-94.53 143.51,-152.03 243.14,-162.66z"/>
  </g>
 </g>
</svg>
