<?xml version="1.0" encoding="UTF-8"?>
<!DOCTYPE svg PUBLIC "-//W3C//DTD SVG 1.1//EN" "http://www.w3.org/Graphics/SVG/1.1/DTD/svg11.dtd">
<!-- Creator: CorelDRAW 2018 (64-Bit) -->
<svg xmlns="http://www.w3.org/2000/svg" xml:space="preserve" width="5.4186mm" height="5.4186mm" version="1.1" style="shape-rendering:geometricPrecision; text-rendering:geometricPrecision; image-rendering:optimizeQuality; fill-rule:evenodd; clip-rule:evenodd"
viewBox="0 0 541.86 541.86"
 xmlns:xlink="http://www.w3.org/1999/xlink">
 <defs>
  <style type="text/css">
   <![CDATA[
    .fil1 {fill:#BAF6FF}
    .fil2 {fill:#BAF7FF}
    .fil8 {fill:#BCF7FF}
    .fil11 {fill:url(#id0)}
    .fil6 {fill:url(#id1)}
    .fil3 {fill:url(#id2)}
    .fil10 {fill:url(#id3)}
    .fil5 {fill:url(#id4)}
    .fil4 {fill:url(#id5)}
    .fil7 {fill:url(#id6)}
    .fil9 {fill:url(#id7)}
    .fil0 {fill:url(#id8)}
   ]]>
  </style>
  <linearGradient id="id0" gradientUnits="userSpaceOnUse" x1="201" y1="209.27" x2="34.09" y2="209.27">
   <stop offset="0" style="stop-opacity:1; stop-color:#7DCBFF"/>
   <stop offset="1" style="stop-opacity:1; stop-color:#536EEE"/>
  </linearGradient>
  <linearGradient id="id1" gradientUnits="userSpaceOnUse" xlink:href="#id0" x1="341.76" y1="327.28" x2="508.81" y2="327.28">
  </linearGradient>
  <linearGradient id="id2" gradientUnits="userSpaceOnUse" x1="241.17" y1="158.3" x2="18.39" y2="158.3">
   <stop offset="0" style="stop-opacity:1; stop-color:#A8E8FF"/>
   <stop offset="0.509804" style="stop-opacity:1; stop-color:#90C0FF"/>
   <stop offset="1" style="stop-opacity:1; stop-color:#7798FE"/>
  </linearGradient>
  <linearGradient id="id3" gradientUnits="userSpaceOnUse" xlink:href="#id0" x1="460.86" y1="115.72" x2="201" y2="115.72">
  </linearGradient>
  <linearGradient id="id4" gradientUnits="userSpaceOnUse" xlink:href="#id0" x1="81.96" y1="420.79" x2="341.76" y2="420.79">
  </linearGradient>
  <linearGradient id="id5" gradientUnits="userSpaceOnUse" x1="19.4" y1="408.7" x2="301.71" y2="408.7">
   <stop offset="0" style="stop-opacity:1; stop-color:#ABEEFF"/>
   <stop offset="1" style="stop-opacity:1; stop-color:#7697FE"/>
  </linearGradient>
  <linearGradient id="id6" gradientUnits="userSpaceOnUse" xlink:href="#id2" x1="301.71" y1="378.24" x2="524.7" y2="378.24">
  </linearGradient>
  <linearGradient id="id7" gradientUnits="userSpaceOnUse" xlink:href="#id2" x1="523.52" y1="127.83" x2="241.18" y2="127.83">
  </linearGradient>
  <linearGradient id="id8" gradientUnits="userSpaceOnUse" x1="230.14" y1="519.96" x2="38.41" y2="471.91">
   <stop offset="0" style="stop-opacity:1; stop-color:#96D0FF"/>
   <stop offset="1" style="stop-opacity:1; stop-color:#7BA0FF"/>
  </linearGradient>
 </defs>
 <g id="Слой_x0020_1">
  <metadata id="CorelCorpID_0Corel-Layer"/>
  <g id="_2945598944016">
   <polygon class="fil0" points="20.88,541.88 234.86,501.1 107.28,415.41 "/>
   <path class="fil1" d="M241.18 32.94l-27.63 -14.61c17.32,-12.21 37.66,-18.32 58.01,-18.32 25.56,0 51.16,9.66 70.67,29.03l0 0c-15.01,-7.94 -31.14,-11.71 -47.06,-11.71 -19.11,0 -37.91,5.44 -53.99,15.61l0 0z"/>
   <path class="fil2" d="M19.3 325.59c-33.58,-46.86 -18.57,-107.56 10.81,-127.56 -17.42,32.77 -14.74,70.98 3.98,100.23l-14.79 27.33 0 0z"/>
   <path class="fil1" d="M271.34 536.5c-25.61,0 -51.18,-9.67 -70.71,-29.04 15.04,7.95 31.17,11.72 47.06,11.72 19.13,0 37.89,-5.44 54.02,-15.61l27.61 14.62c-17.32,12.2 -37.65,18.31 -57.98,18.31l0 0z"/>
   <path class="fil3" d="M76.45 152.17l75.98 -75.36 48.09 -47.69c4.18,-4.16 8.34,-7.5 13.02,-10.77l27.64 14.59c-14.09,8.92 -26.09,21.38 -34.54,37.05l-5.63 10.5 -3.7 0.44c-30.5,4.46 -58.58,22.58 -74.13,51.63l-15.83 29.5 -42.95 79.73 -30.31 56.45c-12.24,-19.08 -17.68,-42.01 -15.06,-64.76 1.46,-12.08 4.96,-24.07 11.08,-35.45l46.34 -45.86z"/>
   <path class="fil4" d="M34.09 298.24c8.95,13.87 21.55,25.85 37.35,34.15l10.52 5.63 0.89 6.16c5.11,29.24 23.19,55.94 51.67,70.94l29.86 15.75 68.75 36.41 68.58 36.29c-16.16,10.18 -34.89,15.59 -54.06,15.59 -10.14,0 -20.36,-1.51 -30.31,-4.72 -5.66,-1.78 -11.33,-4.11 -16.71,-6.98l-42.18 -41.88 -84 -83.2 -44.28 -43.95c-4,-3.96 -7.6,-8.41 -10.78,-12.83l14.7 -27.36z"/>
   <path class="fil5" d="M283.96 444.86c15.05,7.97 31.18,11.76 47.12,11.76 3.56,0 7.12,-0.23 10.69,-0.55l-5.74 10.5c-8.32,15.62 -20.27,28.08 -34.32,37l-64.56 -34.08 -55.43 -29.28 -47.3 -25.02 -5.05 -2.84c-27.42,-16.57 -44.14,-44.51 -47.41,-74.34l47.31 25.02 52.26 27.62 55.52 29.44 46.91 24.77z"/>
   <path class="fil6" d="M489.83 273.37l-46.74 86.84 -23.54 43.81c-2.91,5.46 -6.31,10.51 -10.07,15.17 -16.94,21.12 -41.62,34.01 -67.71,36.88l19.78 -36.78 31.7 -58.89 46.37 -86.24 9.93 -18.44c9.78,-18.24 13.36,-38.21 11.31,-57.24l10.53 5.6c15.74,8.32 28.48,20.33 37.41,34.21l-18.97 35.08z"/>
   <path class="fil7" d="M508.8 238.29c16.73,25.9 21.03,58.76 9.18,88.61 -1.43,3.97 -3.18,7.82 -5.25,11.58l-59.55 59.03 -82.78 82.11 -28.08 27.81c-4.02,3.97 -8.52,7.6 -13,10.76l-27.61 -14.62c13.21,-8.43 24.58,-20 32.84,-34.3l1.55 -2.72 5.67 -10.48c31.87,-3.42 61.57,-21.89 77.79,-52.07l7.97 -14.82 44.01 -81.85 37.26 -69.04z"/>
   <path class="fil8" d="M512.74 338.47c17.64,-32.77 14.86,-70.94 -3.94,-100.18l14.72 -27.46c26.8,37.42 24.49,89.08 -7.18,123.91 -0.01,0 -0.03,0 -0.03,0 -0.06,0.08 -0.1,0.12 -0.16,0.2 -0.01,0 -0.03,0 -0.04,0.04 -0.05,0.04 -0.09,0.12 -0.15,0.16 -0.02,0.04 -0.05,0.04 -0.06,0.08 -0.05,0.04 -0.09,0.08 -0.13,0.12 -0.03,0.04 -0.05,0.04 -0.06,0.08 -0.05,0.04 -0.08,0.08 -0.12,0.12 -0.03,0.04 -0.05,0.04 -0.08,0.08 -0.04,0.04 -0.08,0.08 -0.11,0.16 -0.03,0 -0.05,0.04 -0.08,0.04 -0.04,0.04 -0.09,0.12 -0.13,0.15 -0.02,0 -0.04,0.04 -0.07,0.08 -0.05,0.04 -0.09,0.08 -0.14,0.12 -0.03,0.04 -0.04,0.08 -0.07,0.08 -0.03,0.04 -0.06,0.08 -0.1,0.12 -0.03,0.04 -0.06,0.08 -0.11,0.12 -0.03,0 -0.06,0.04 -0.09,0.08 -0.03,0.04 -0.06,0.08 -0.09,0.08 -0.04,0.08 -0.07,0.12 -0.11,0.16 -0.03,0 -0.05,0.04 -0.08,0.08 -0.04,0.04 -0.09,0.08 -0.13,0.12 -0.03,0.04 -0.06,0.04 -0.07,0.08 -0.05,0.04 -0.09,0.08 -0.15,0.15 -0.02,0 -0.05,0.04 -0.06,0.04 -0.03,0.04 -0.08,0.08 -0.12,0.12 -0.03,0.04 -0.06,0.08 -0.07,0.08 -0.05,0.04 -0.09,0.08 -0.14,0.16 -0.01,0 -0.04,0.04 -0.06,0.04 -0.04,0.04 -0.1,0.12 -0.14,0.16 -0.02,0 -0.05,0.04 -0.06,0.04 -0.05,0.08 -0.11,0.12 -0.17,0.16 -0.01,0.04 -0.02,0.04 -0.04,0.08 -0.06,0.04 -0.1,0.08 -0.16,0.16 -0.02,0 -0.03,0 -0.03,0.04 -0.06,0.04 -0.12,0.11 -0.19,0.15l0 0z"/>
   <path class="fil9" d="M464.47 150.24l48.22 47.77c4.07,4.04 7.61,8.33 10.83,12.83l-14.72 27.45c-9.03,-13.96 -21.58,-25.85 -37.38,-34.15l-10.56 -5.66c-0.81,-7.45 -2.44,-14.81 -4.97,-21.88 -6.86,-19.81 -20.04,-37.45 -38.46,-49.81l-9.03 -5.37 -81.08 -42.92 -86.14 -45.56c16.16,-10.19 34.94,-15.57 53.99,-15.57 15.98,0 32.06,3.78 47.13,11.7l6.51 6.51 73.4 72.73 42.26 41.93z"/>
   <path class="fil10" d="M241.18 32.94l38.77 20.56 71.83 37.96 52.06 27.54 4.41 2.35c30.49,16.09 49.21,45.53 52.61,77.15l-57.28 -30.25 -52.04 -27.54 -71.71 -37.96 -21.05 -11.14c-15,-7.92 -31.13,-11.69 -47.01,-11.69 -3.66,0 -7.23,0.21 -10.76,0.57l5.72 -10.59c8.31,-15.58 20.46,-28.13 34.45,-36.96z"/>
   <path class="fil11" d="M201.01 80.49l-32.46 60.28 -24.3 45.21 -31.04 57.69 -19.98 37.15c-9.79,18.26 -13.29,38.13 -11.21,57.23l-10.65 -5.63c-15.77,-8.3 -28.35,-20.25 -37.28,-34.18l29.47 -54.72 31.09 -57.85 24.19 -45.06 4.36 -8.07c16.06,-30.25 45.92,-48.65 77.81,-52.05z"/>
  </g>
 </g>
</svg>
