<?xml version="1.0" encoding="UTF-8"?>
<!DOCTYPE svg PUBLIC "-//W3C//DTD SVG 1.1//EN" "http://www.w3.org/Graphics/SVG/1.1/DTD/svg11.dtd">
<!-- Creator: CorelDRAW 2018 (64-Bit) -->
<svg xmlns="http://www.w3.org/2000/svg" xml:space="preserve" width="8.4666mm" height="8.4666mm" version="1.1" style="shape-rendering:geometricPrecision; text-rendering:geometricPrecision; image-rendering:optimizeQuality; fill-rule:evenodd; clip-rule:evenodd"
viewBox="0 0 846.66 846.66"
 xmlns:xlink="http://www.w3.org/1999/xlink">
 <defs>
  <style type="text/css">
   <![CDATA[
    .fil1 {fill:#FEFEFE}
    .fil2 {fill:#64D0C5}
    .fil0 {fill:#64D0C5}
    .fil3 {fill:#FAFEFE}
   ]]>
  </style>
 </defs>
 <g id="Слой_x0020_1">
  <metadata id="CorelCorpID_0Corel-Layer"/>
  <g id="_2945628174240">
   <circle class="fil0" cx="423.33" cy="423.33" r="423.33"/>
   <path class="fil1" d="M561.02 747.67c16.65,19.67 23.59,40.13 28.36,65.2 -50.98,21.76 -107.12,33.81 -166.06,33.81 -50.93,0 -99.76,-9 -144.99,-25.48 21.21,-106.36 81.42,-89.74 86.58,-120.33 2.23,-13.2 1.3,-31.05 1.4,-44.78 -73.65,-15.5 -82.65,3.9 -143.85,-58.51l-13.26 -17 -10.06 -16.82 -3.23 -7.06 -3.12 -8.26 -5.48 -18.98 -3.73 -10.21 -6.97 -9.68 -6.23 -6.32 -6.53 -7.71 -7.35 -11.68 -5.01 -13.83 -1.89 -14.22 0.58 -15.7 1.35 -9.65 3.55 -15.31 4.92 -11 6.88 -9.39 7.85 -6.77 5.28 -3.68 10.71 -7.13 9.19 -19.29 5.85 -10.88 5.26 -8.48 12.18 -16.12 8.2 -8.73 8.52 -7.7 10.08 -7.64 14.04 -8.49 5.24 -2.46 9.71 -4.11c63.1,-26.68 171.95,4.46 136.26,-99.74 -13.68,-39.96 2.05,-55.81 18.82,-55.67 16.77,-0.14 32.5,15.71 18.82,55.67 -35.69,104.2 73.16,73.06 136.26,99.74l9.71 4.11 5.24 2.46 14.04 8.49 10.08 7.64 8.52 7.7 8.2 8.73 12.18 16.12 5.26 8.48 5.85 10.88 9.19 19.29 10.71 7.13 5.28 3.68 7.85 6.77 6.88 9.39 4.92 11 3.55 15.31 1.35 9.65 0.58 15.7 -1.89 14.22 -5.01 13.83 -7.35 11.68 -6.53 7.71 -6.23 6.32 -6.97 9.68 -3.73 10.21 -5.48 18.98 -3.12 8.26 -3.23 7.06 -10.06 16.82 -13.26 17 -19.74 20.13 -12.21 9.56c-46.03,26.37 -47.21,18.23 -95.78,25.53 -19.52,2.93 -16.13,6.94 -16.08,27.17 0.14,49.44 29.42,32.58 59.15,67.7z"/>
   <path class="fil2" d="M345.7 589.37l166.22 -0.09c158.61,-0.41 133.7,-204.01 15.11,-204.11l-181.33 0c-133.68,0.77 -135.69,204.18 0,204.2z"/>
   <path class="fil3" d="M334.85 462.87c-36.31,19.28 -9.31,65.38 23.1,48.98 29.27,-14.81 8.51,-65.76 -23.1,-48.98z"/>
   <path class="fil3" d="M512.48 462.87c-37.41,19.93 -7.28,64.85 23.27,49.13 29.35,-15.1 7.93,-65.76 -23.27,-49.13z"/>
  </g>
 </g>
</svg>
